<?xml version="1.0" encoding="UTF-8"?>
<svg width="20px" height="18px" viewBox="0 0 20 18" version="1.1" xmlns="http://www.w3.org/2000/svg" xmlns:xlink="http://www.w3.org/1999/xlink">
    <!-- Generator: Sketch 51.3 (57544) - http://www.bohemiancoding.com/sketch -->
    <title>comment_text</title>
    <desc>Created with Sketch.</desc>
    <defs></defs>
    <g id="Beta" stroke="none" stroke-width="1" fill="none" fill-rule="evenodd">
        <g id="Beta-Home-Page" transform="translate(-253.000000, -752.000000)" fill="#1E1E1E" fill-rule="nonzero">
            <g id="comment_text" transform="translate(253.000000, 752.000000)">
                <path d="M20,2 C20,0.8954305 19.1045695,0 18,0 L2,0 C0.8954305,0 0,0.8954305 0,2 L0,14 C0,15.1045695 0.8954305,16 2,16 L7.09,16 C7.35233988,16.0011046 7.60373936,16.1052558 7.79,16.29 L9.28,17.78 C9.42051736,17.9206925 9.61115465,17.9998249 9.81,18 L10.19,18 C10.3888454,17.9998249 10.5794826,17.9206925 10.72,17.78 L12.21,16.29 C12.3962606,16.1052558 12.6476601,16.0011046 12.91,16 L18,16 C19.1045695,16 20,15.1045695 20,14 L20,2 Z M12,10.5 C12,10.7761424 11.7761424,11 11.5,11 L4.5,11 C4.22385763,11 4,10.7761424 4,10.5 L4,9.5 C4,9.22385763 4.22385763,9 4.5,9 L11.5,9 C11.7761424,9 12,9.22385763 12,9.5 L12,10.5 Z M16,6.5 C16,6.77614237 15.7761424,7 15.5,7 L4.5,7 C4.22385763,7 4,6.77614237 4,6.5 L4,5.5 C4,5.22385763 4.22385763,5 4.5,5 L15.5,5 C15.7761424,5 16,5.22385763 16,5.5 L16,6.5 Z" id="Icon-color"></path>
            </g>
        </g>
    </g>
</svg>
