<?xml version="1.0" encoding="UTF-8"?>
<svg width="20px" height="16px" viewBox="0 0 20 16" version="1.1" xmlns="http://www.w3.org/2000/svg" xmlns:xlink="http://www.w3.org/1999/xlink">
    <!-- Generator: Sketch 51.3 (57544) - http://www.bohemiancoding.com/sketch -->
    <title>credit_card</title>
    <desc>Created with Sketch.</desc>
    <defs></defs>
    <g id="Beta" stroke="none" stroke-width="1" fill="none" fill-rule="evenodd">
        <g id="Beta-Home-Page" transform="translate(-178.000000, -753.000000)" fill="#1E1E1E" fill-rule="nonzero">
            <g id="credit_card" transform="translate(178.000000, 753.000000)">
                <path d="M20,2 C20,0.8954305 19.1045695,0 18,0 L2,0 C0.8954305,0 0,0.8954305 0,2 L0,14 C0,15.1045695 0.8954305,16 2,16 L18,16 C19.1045695,16 20,15.1045695 20,14 L20,2 Z M8,12.5 C8,12.7761424 7.77614237,13 7.5,13 L4.5,13 C4.22385763,13 4,12.7761424 4,12.5 L4,11.5 C4,11.2238576 4.22385763,11 4.5,11 L7.5,11 C7.77614237,11 8,11.2238576 8,11.5 L8,12.5 Z M18,7.5 C18,7.77614237 17.7761424,8 17.5,8 L2.5,8 C2.22385763,8 2,7.77614237 2,7.5 L2,5.5 C2,5.22385763 2.22385763,5 2.5,5 L17.5,5 C17.7761424,5 18,5.22385763 18,5.5 L18,7.5 Z" id="Icon-color"></path>
            </g>
        </g>
    </g>
</svg>