<?xml version="1.0" encoding="UTF-8"?>
<svg width="20px" height="18px" viewBox="0 0 20 18" version="1.1" xmlns="http://www.w3.org/2000/svg" xmlns:xlink="http://www.w3.org/1999/xlink">
    <!-- Generator: Sketch 51.3 (57544) - http://www.bohemiancoding.com/sketch -->
    <title>home_vs</title>
    <desc>Created with Sketch.</desc>
    <defs></defs>
    <g id="Beta" stroke="none" stroke-width="1" fill="none" fill-rule="evenodd">
        <g id="Beta-Home-Page" transform="translate(-102.000000, -752.000000)" fill="#1E1E1E" fill-rule="nonzero">
            <g id="Component/Tab-Bar/Item/Active" transform="translate(92.000000, 741.000000)">
                <g id="home_vs" transform="translate(10.000000, 11.000000)">
                    <path d="M19.71,7.71 L12.29,0.29 C12.1037394,0.105255836 11.8523399,0.00110462154 11.59,0 L8.41,0 C8.14766012,0.00110462154 7.89626064,0.105255836 7.71,0.29 L0.29,7.71 C0.105255836,7.89626064 0.00110462154,8.14766012 0,8.41 L0,9.5 C0,9.77614237 0.223857625,10 0.5,10 L2,10 L2,17 C2,17.5522847 2.44771525,18 3,18 L6,18 C6.55228475,18 7,17.5522847 7,17 L7,11.5 C7,11.2238576 7.22385763,11 7.5,11 L12.5,11 C12.7761424,11 13,11.2238576 13,11.5 L13,17 C13,17.5522847 13.4477153,18 14,18 L17,18 C17.5522847,18 18,17.5522847 18,17 L18,10 L19.5,10 C19.7761424,10 20,9.77614237 20,9.5 L20,8.41 C19.9988954,8.14766012 19.8947442,7.89626064 19.71,7.71 Z" id="Icon-color"></path>
                    <path d="M19.71,7.71 L12.29,0.29 C12.1037394,0.105255836 11.8523399,0.00110462154 11.59,0 L8.41,0 C8.14766012,0.00110462154 7.89626064,0.105255836 7.71,0.29 L0.29,7.71 C0.105255836,7.89626064 0.00110462154,8.14766012 0,8.41 L0,9.5 C0,9.77614237 0.223857625,10 0.5,10 L2,10 L2,17 C2,17.5522847 2.44771525,18 3,18 L6,18 C6.55228475,18 7,17.5522847 7,17 L7,11.5 C7,11.2238576 7.22385763,11 7.5,11 L12.5,11 C12.7761424,11 13,11.2238576 13,11.5 L13,17 C13,17.5522847 13.4477153,18 14,18 L17,18 C17.5522847,18 18,17.5522847 18,17 L18,10 L19.5,10 C19.7761424,10 20,9.77614237 20,9.5 L20,8.41 C19.9988954,8.14766012 19.8947442,7.89626064 19.71,7.71 Z" id="Icon-color"></path>
                </g>
            </g>
        </g>
    </g>
</svg>